# xmcd
#
# Track frame offsets:
#	150
#	13142
#	40281
#	62170
#	81028
#	93415
#	118739
#	132340
#	148511
#	165216
#	178748
#
# Disc length: 2743 seconds
#
# Revision: 1
# Processed by: cddbd v1.5.2PL0 Copyright (c) Steve Scherf et al.
# Submitted via: EZCDAudioConverter 2.1.7.1
#
DISCID=900ab50b
DTITLE=Ebony Rhythm Band - Soul Heart Transplant
DYEAR=1969
DGENRE=
TTITLE0=Ebony Rhythm Band - Soul Heart Transplant
TTITLE1=Ebony Rhythm Band - Light My Fire
TTITLE2=Ebony Rhythm Band - Ode To Billy Joe
TTITLE3=Ebony Rhythm Band - Vanilla Fudge
TTITLE4=Ebony Rhythm Band - Drugs Ain't Cool
TTITLE5=Ebony Rhythm Band - Get Yourself Together
TTITLE6=The Vanguards - The Thought Of Losing Your Love
TTITLE7=The Pearls - Can I Call You Baby
TTITLE8=The Montiques - Fool Am I
TTITLE9=The Vanguards - It's Too Late For Love
TTITLE10=Ebony Rhythm Band - Light My Fire [Alternate]
EXTD=
EXTT0=
EXTT1=
EXTT2=
EXTT3=
EXTT4=
EXTT5=
EXTT6=
EXTT7=
EXTT8=
EXTT9=
EXTT10=
PLAYORDER=
